<?xml version="1.0" encoding="utf-8"?>
<!-- Generator: Adobe Illustrator 21.0.0, SVG Export Plug-In . SVG Version: 6.00 Build 0)  -->
<svg version="1.1" xmlns="http://www.w3.org/2000/svg" xmlns:xlink="http://www.w3.org/1999/xlink" x="0px" y="0px"
	 viewBox="0 0 230 229" style="enable-background:new 0 0 230 229;" xml:space="preserve">
<style type="text/css">
	.st0{display:none;}
	.st1{display:inline;fill:#787878;}
	.st2{display:inline;opacity:0.3;}
	.st3{fill:#FFFFFF;}
</style>
<g id="Layer_2">
	<g class="st0">
		<path class="st1" d="M-528.1,329.5c0,3.2-1.2,5.7-3.5,7.5s-5.5,2.7-9.4,2.7c-4.3,0-7.6-0.6-9.9-1.7v-4.1c1.5,0.6,3.1,1.1,4.9,1.5
			c1.8,0.4,3.5,0.5,5.2,0.5c2.8,0,4.9-0.5,6.3-1.6c1.4-1.1,2.1-2.5,2.1-4.4c0-1.3-0.3-2.3-0.8-3.1s-1.3-1.5-2.5-2.2
			c-1.2-0.7-3-1.4-5.4-2.3c-3.4-1.2-5.8-2.6-7.2-4.3c-1.4-1.7-2.2-3.8-2.2-6.5c0-2.8,1-5,3.1-6.7s4.9-2.5,8.3-2.5
			c3.6,0,6.9,0.7,9.9,2l-1.3,3.7c-3-1.3-5.9-1.9-8.7-1.9c-2.2,0-4,0.5-5.2,1.4c-1.3,1-1.9,2.3-1.9,4c0,1.3,0.2,2.3,0.7,3.1
			c0.5,0.8,1.2,1.5,2.3,2.2c1.1,0.7,2.8,1.4,5,2.2c3.8,1.4,6.4,2.8,7.8,4.4C-528.9,325-528.1,327-528.1,329.5z"/>
		<path class="st1" d="M-492.8,339.2l-4.5-11.5h-14.5l-4.5,11.5h-4.3l14.3-36.4h3.5l14.3,36.4H-492.8z M-498.6,323.9l-4.2-11.2
			c-0.5-1.4-1.1-3.2-1.7-5.2c-0.4,1.6-0.9,3.3-1.6,5.2l-4.3,11.2H-498.6z"/>
		<path class="st1" d="M-478.2,339.2v-36.2h4.2v36.2H-478.2z"/>
		<path class="st1" d="M-458.9,339.2v-36.2h4.2v32.4h16v3.8H-458.9z"/>
		<path class="st1" d="M-423.2,339.2h-4.2v-36.2h20.2v3.7h-16v13.3h15v3.7h-15V339.2z"/>
		<path class="st1" d="M-396,339.2v-36.2h4.2v36.2H-396z"/>
		<path class="st1" d="M-356.2,329.5c0,3.2-1.2,5.7-3.5,7.5s-5.5,2.7-9.4,2.7c-4.3,0-7.6-0.6-9.9-1.7v-4.1c1.5,0.6,3.1,1.1,4.9,1.5
			c1.8,0.4,3.5,0.5,5.2,0.5c2.8,0,4.9-0.5,6.3-1.6c1.4-1.1,2.1-2.5,2.1-4.4c0-1.3-0.3-2.3-0.8-3.1c-0.5-0.8-1.3-1.5-2.5-2.2
			c-1.2-0.7-3-1.4-5.4-2.3c-3.4-1.2-5.8-2.6-7.2-4.3c-1.4-1.7-2.2-3.8-2.2-6.5c0-2.8,1-5,3.1-6.7s4.9-2.5,8.3-2.5
			c3.6,0,6.9,0.7,9.9,2l-1.3,3.7c-3-1.3-5.9-1.9-8.7-1.9c-2.2,0-4,0.5-5.2,1.4c-1.3,1-1.9,2.3-1.9,4c0,1.3,0.2,2.3,0.7,3.1
			c0.5,0.8,1.2,1.5,2.3,2.2c1.1,0.7,2.8,1.4,5,2.2c3.8,1.4,6.4,2.8,7.8,4.4C-356.9,325-356.2,327-356.2,329.5z"/>
		<path class="st1" d="M-316.1,339.2h-4.2v-17.1h-19.1v17.1h-4.2v-36.2h4.2v15.4h19.1v-15.4h4.2V339.2z"/>
		<path class="st1" d="M-259.6,321c0,5.8-1.5,10.4-4.4,13.7c-2.9,3.3-7,5-12.2,5c-5.3,0-9.5-1.6-12.4-4.9c-2.9-3.3-4.4-7.9-4.4-13.8
			c0-5.9,1.5-10.5,4.4-13.7c2.9-3.2,7-4.9,12.4-4.9c5.2,0,9.3,1.7,12.2,5C-261.1,310.6-259.6,315.2-259.6,321z M-288.5,321
			c0,4.9,1,8.6,3.1,11.2c2.1,2.5,5.1,3.8,9.1,3.8c4,0,7-1.3,9.1-3.8c2-2.5,3.1-6.3,3.1-11.2c0-4.9-1-8.6-3.1-11.1
			c-2-2.5-5.1-3.8-9.1-3.8c-4,0-7.1,1.3-9.2,3.8S-288.5,316.2-288.5,321z"/>
		<path class="st1" d="M-225.9,329.5c0,3.2-1.2,5.7-3.5,7.5c-2.3,1.8-5.5,2.7-9.4,2.7c-4.3,0-7.6-0.6-9.9-1.7v-4.1
			c1.5,0.6,3.1,1.1,4.9,1.5c1.8,0.4,3.5,0.5,5.2,0.5c2.8,0,4.9-0.5,6.3-1.6c1.4-1.1,2.1-2.5,2.1-4.4c0-1.3-0.3-2.3-0.8-3.1
			s-1.3-1.5-2.5-2.2c-1.2-0.7-3-1.4-5.4-2.3c-3.4-1.2-5.8-2.6-7.2-4.3c-1.4-1.7-2.2-3.8-2.2-6.5c0-2.8,1-5,3.1-6.7s4.9-2.5,8.3-2.5
			c3.6,0,6.9,0.7,9.9,2l-1.3,3.7c-3-1.3-5.9-1.9-8.7-1.9c-2.2,0-4,0.5-5.2,1.4c-1.3,1-1.9,2.3-1.9,4c0,1.3,0.2,2.3,0.7,3.1
			c0.5,0.8,1.2,1.5,2.3,2.2s2.8,1.4,5,2.2c3.8,1.4,6.4,2.8,7.8,4.4C-226.6,325-225.9,327-225.9,329.5z"/>
	</g>
</g>
<g id="Layer_3">
	<g class="st0">
		<g class="st2">
			<path class="st3" d="M115.2,3c29.8,0,57.8,11.6,78.8,32.7c21.1,21.1,32.7,49.1,32.7,78.8s-11.6,57.8-32.7,78.8
				c-21.1,21.1-49.1,32.7-78.8,32.7s-57.8-11.6-78.8-32.7c-21.1-21.1-32.7-49.1-32.7-78.8s11.6-57.8,32.7-78.8
				C57.4,14.6,85.4,3,115.2,3 M115.2,0C51.9,0,0.7,51.3,0.7,114.5S51.9,229,115.2,229c63.2,0,114.5-51.3,114.5-114.5
				S178.4,0,115.2,0L115.2,0z"/>
		</g>
	</g>
	<g>
		<path class="st3" d="M110.8,164.8c2.3-12.9-6.7-21.2-7.1-21.8c0.6,1.3,10.3,15.2-0.4,25.8c-11.8,11.8-32-5.9-59.7,0.2
			c29.2,2.4,41.6,23.3,41.9,23.1C93.9,188.6,108.5,177.8,110.8,164.8z"/>
		<path class="st3" d="M105.1,91.7c8.4-13.2,23.6-20.9,23.6-20.9c-6.9-14.1-2.1-32.8,3-40.5c0.1-0.2-0.1-0.4-0.4-0.3
			c-8.2,6-30.9,27.3-30.9,48.2C100.3,83.4,102.5,87.5,105.1,91.7z"/>
		<path class="st3" d="M97.5,78.2c0-15.7,12.2-30.9,19.6-38.7c0.1-0.1-0.1-0.3-0.2-0.2c-6.7,4.7-41.5,30.5-41.5,59.9
			c0,15.1,10.4,24.3,20.5,33.3c8.3,7.4,16.2,14.4,17.8,24.1c1.5,9.3-2.5,18.4-12,27.1c-2.9,2.6-6.3,5.2-10.1,7.8
			c-0.4,0.3,0,0.9,0.5,0.7c38.5-20.4,42.4-38.7,42.4-53C134.5,116.8,97.5,99.7,97.5,78.2z"/>
		<path class="st3" d="M130.8,72.3c-0.2,0-17,9.6-23.6,21.6c6.5,8.6,7.2,8.3,16.6,18.8c23.5-27.5,67-52.6,67-52.6
			c0.4-0.1,0.2-0.7-0.2-0.6c-36.4,17.6-36.2,16.9-42.6,15.9C144.5,74.9,136,73.4,130.8,72.3z"/>
	</g>
</g>
</svg>
