<?xml version="1.0" encoding="utf-8"?>
<!-- Generator: Adobe Illustrator 21.0.0, SVG Export Plug-In . SVG Version: 6.00 Build 0)  -->
<svg version="1.1" id="Layer_2" xmlns="http://www.w3.org/2000/svg" xmlns:xlink="http://www.w3.org/1999/xlink" x="0px" y="0px"
	 viewBox="0 0 353 298" style="enable-background:new 0 0 353 298;" xml:space="preserve">
<style type="text/css">
	.st0{fill:#787878;}
	.st1{display:none;}
	.st2{display:inline;fill:#787878;}
</style>
<g>
	<path class="st0" d="M172.4,200.2c-2-13.4-11.8-23.3-22.4-33.6c9.3,10.8,33.8,74.6-66.2,112.7c-0.5,0.2-0.2,0.9,0.3,0.7
		C143.5,258.5,176.6,228.6,172.4,200.2z"/>
	<path class="st0" d="M159.8,103.4c0.1,0.2,0.5,0.2,0.6,0c8.6-19.6,31.3-31.7,31.3-31.7c-9.3-20.9-2.1-47.8,4.8-59.2
		c0.2-0.3-0.2-0.7-0.5-0.4c-11.1,8.9-42.1,40.6-42.1,71.6C153.9,91.1,156.4,97.4,159.8,103.4z"/>
	<path class="st0" d="M152.3,83.3c0-23.4,16.6-45.9,26.7-57.4c0.2-0.2-0.1-0.4-0.3-0.3c-9.1,7-56.5,45.3-56.5,89
		c0,22.4,14.2,36.2,27.9,49.4c11.3,11,22,21.3,24.2,35.8c2,13.8-3.4,27.3-16.3,40.2c-3.9,3.9-8.5,7.8-13.8,11.6
		c-0.6,0.4,0,1.4,0.6,1c52.4-30.3,60.8-57.6,57.7-78.8c-3-20.7-15.4-34.3-27.3-47.4C163.5,113.5,152.3,101.2,152.3,83.3z"/>
	<path class="st0" d="M198.7,71c-0.3-0.2-25.2,10.2-37.1,34.7c-0.1,0.1-0.1,0.3-0.2,0.4c4.2,6.7,9.7,12.8,15.5,19.1
		c1.5,1.7,5.8,6.7,7.3,8.4c7.8-33.8,91.2-78.2,91.2-78.2c0.5-0.2,0.2-1.1-0.2-0.8C220.2,80.2,215.7,82.5,198.7,71z"/>
</g>
<g class="st1">
	<path class="st2" d="M36.9,344.9c0,3.2-1.2,5.7-3.5,7.5c-2.3,1.8-5.5,2.7-9.4,2.7c-4.3,0-7.6-0.6-9.9-1.7v-4.1
		c1.5,0.6,3.1,1.1,4.9,1.5c1.8,0.4,3.5,0.5,5.2,0.5c2.8,0,4.9-0.5,6.3-1.6c1.4-1.1,2.1-2.5,2.1-4.4c0-1.3-0.3-2.3-0.8-3.1
		c-0.5-0.8-1.3-1.5-2.5-2.2c-1.2-0.7-3-1.4-5.4-2.3c-3.4-1.2-5.8-2.6-7.2-4.3s-2.2-3.8-2.2-6.5c0-2.8,1-5,3.1-6.7
		c2.1-1.7,4.9-2.5,8.3-2.5c3.6,0,6.9,0.7,9.9,2l-1.3,3.7c-3-1.3-5.9-1.9-8.7-1.9c-2.2,0-4,0.5-5.2,1.4c-1.3,1-1.9,2.3-1.9,4
		c0,1.3,0.2,2.3,0.7,3.1s1.2,1.5,2.3,2.2s2.8,1.4,5,2.2c3.8,1.4,6.4,2.8,7.8,4.4C36.1,340.4,36.9,342.4,36.9,344.9z"/>
	<path class="st2" d="M72.2,354.5L67.7,343H53.2l-4.5,11.5h-4.3l14.3-36.4h3.5l14.3,36.4H72.2z M66.4,339.2L62.2,328
		c-0.5-1.4-1.1-3.2-1.7-5.2c-0.4,1.6-0.9,3.3-1.6,5.2l-4.3,11.2H66.4z"/>
	<path class="st2" d="M86.8,354.5v-36.2H91v36.2H86.8z"/>
	<path class="st2" d="M106.1,354.5v-36.2h4.2v32.4h16v3.8H106.1z"/>
	<path class="st2" d="M141.8,354.5h-4.2v-36.2h20.2v3.7h-16v13.3h15v3.7h-15V354.5z"/>
	<path class="st2" d="M169,354.5v-36.2h4.2v36.2H169z"/>
	<path class="st2" d="M208.8,344.9c0,3.2-1.2,5.7-3.5,7.5c-2.3,1.8-5.5,2.7-9.4,2.7c-4.3,0-7.6-0.6-9.9-1.7v-4.1
		c1.5,0.6,3.1,1.1,4.9,1.5c1.8,0.4,3.5,0.5,5.2,0.5c2.8,0,4.9-0.5,6.3-1.6c1.4-1.1,2.1-2.5,2.1-4.4c0-1.3-0.3-2.3-0.8-3.1
		c-0.5-0.8-1.3-1.5-2.5-2.2c-1.2-0.7-3-1.4-5.4-2.3c-3.4-1.2-5.8-2.6-7.2-4.3c-1.4-1.7-2.2-3.8-2.2-6.5c0-2.8,1-5,3.1-6.7
		c2.1-1.7,4.9-2.5,8.3-2.5c3.6,0,6.9,0.7,9.9,2l-1.3,3.7c-3-1.3-5.9-1.9-8.7-1.9c-2.2,0-4,0.5-5.2,1.4c-1.3,1-1.9,2.3-1.9,4
		c0,1.3,0.2,2.3,0.7,3.1c0.5,0.8,1.2,1.5,2.3,2.2s2.8,1.4,5,2.2c3.8,1.4,6.4,2.8,7.8,4.4C208.1,340.4,208.8,342.4,208.8,344.9z"/>
	<path class="st2" d="M248.9,354.5h-4.2v-17.1h-19.1v17.1h-4.2v-36.2h4.2v15.4h19.1v-15.4h4.2V354.5z"/>
	<path class="st2" d="M305.4,336.3c0,5.8-1.5,10.4-4.4,13.7c-2.9,3.3-7,5-12.2,5c-5.3,0-9.5-1.6-12.4-4.9c-2.9-3.3-4.4-7.9-4.4-13.8
		c0-5.9,1.5-10.5,4.4-13.7c2.9-3.2,7-4.9,12.4-4.9c5.2,0,9.3,1.7,12.2,5C303.9,326,305.4,330.5,305.4,336.3z M276.5,336.3
		c0,4.9,1,8.6,3.1,11.2c2.1,2.5,5.1,3.8,9.1,3.8c4,0,7-1.3,9.1-3.8c2-2.5,3.1-6.3,3.1-11.2c0-4.9-1-8.6-3.1-11.1
		c-2-2.5-5.1-3.8-9.1-3.8c-4,0-7.1,1.3-9.2,3.8C277.5,327.8,276.5,331.5,276.5,336.3z"/>
	<path class="st2" d="M339.1,344.9c0,3.2-1.2,5.7-3.5,7.5s-5.5,2.7-9.4,2.7c-4.3,0-7.6-0.6-9.9-1.7v-4.1c1.5,0.6,3.1,1.1,4.9,1.5
		c1.8,0.4,3.5,0.5,5.2,0.5c2.8,0,4.9-0.5,6.3-1.6c1.4-1.1,2.1-2.5,2.1-4.4c0-1.3-0.3-2.3-0.8-3.1s-1.3-1.5-2.5-2.2
		c-1.2-0.7-3-1.4-5.4-2.3c-3.4-1.2-5.8-2.6-7.2-4.3s-2.2-3.8-2.2-6.5c0-2.8,1-5,3.1-6.7c2.1-1.7,4.9-2.5,8.3-2.5
		c3.6,0,6.9,0.7,9.9,2l-1.3,3.7c-3-1.3-5.9-1.9-8.7-1.9c-2.2,0-4,0.5-5.2,1.4c-1.3,1-1.9,2.3-1.9,4c0,1.3,0.2,2.3,0.7,3.1
		c0.5,0.8,1.2,1.5,2.3,2.2c1.1,0.7,2.8,1.4,5,2.2c3.8,1.4,6.4,2.8,7.8,4.4C338.4,340.4,339.1,342.4,339.1,344.9z"/>
</g>
</svg>
